<svg width="331" height="258" viewBox="0 0 331 258" fill="none" xmlns="http://www.w3.org/2000/svg">
<g clip-path="url(#clip0_522_56)">
<rect width="331" height="258" fill="white"/>
<path d="M206.654 212.744C210.704 216.498 210.944 222.825 207.189 226.876L160.41 277.337C156.655 281.387 150.328 281.626 146.278 277.872L35.3335 175.022C31.2833 171.267 31.0438 164.94 34.7985 160.89L81.5776 110.429C85.3323 106.379 91.6594 106.139 95.7096 109.894L206.654 212.744Z" fill="#ECEDEF"/>
<path d="M283.392 239.312C281.762 244.589 276.163 247.545 270.886 245.914L205.144 225.604C199.867 223.973 196.911 218.374 198.541 213.097L243.197 68.5545C244.827 63.2778 250.426 60.3217 255.703 61.9519L321.446 82.2628C326.722 83.893 329.678 89.4922 328.048 94.769L283.392 239.312Z" fill="#ECEDEF"/>
<g filter="url(#filter0_i_522_56)">
<path d="M242.266 214.788C243.695 220.123 240.529 225.607 235.195 227.036L168.731 244.845C163.396 246.274 157.913 243.108 156.483 237.774L117.328 91.645C115.899 86.3103 119.065 80.8269 124.399 79.3975L190.863 61.5886C196.198 60.1591 201.681 63.325 203.111 68.6596L242.266 214.788Z" fill="white"/>
</g>
<foreignObject x="-17" y="-60" width="313" height="313"><div xmlns="http://www.w3.org/1999/xhtml" style="backdrop-filter:blur(12px);clip-path:url(#bgblur_1_522_56_clip_path);height:100%;width:100%"></div></foreignObject><g opacity="0.6" filter="url(#filter1_g_522_56)" data-figma-bg-blur-radius="24" style="mix-blend-mode:hue">
<circle cx="139.5" cy="96.5" r="56.5" fill="#ECEFEC" fill-opacity="0.98"/>
</g>
</g>
<defs>
<filter id="filter0_i_522_56" x="116.985" y="61.2451" width="132.624" height="193.943" filterUnits="userSpaceOnUse" color-interpolation-filters="sRGB">
<feFlood flood-opacity="0" result="BackgroundImageFix"/>
<feBlend mode="normal" in="SourceGraphic" in2="BackgroundImageFix" result="shape"/>
<feColorMatrix in="SourceAlpha" type="matrix" values="0 0 0 0 0 0 0 0 0 0 0 0 0 0 0 0 0 0 127 0" result="hardAlpha"/>
<feMorphology radius="1" operator="dilate" in="SourceAlpha" result="effect1_innerShadow_522_56"/>
<feOffset dx="7" dy="10"/>
<feGaussianBlur stdDeviation="11"/>
<feComposite in2="hardAlpha" operator="arithmetic" k2="-1" k3="1"/>
<feColorMatrix type="matrix" values="0 0 0 0 0.909804 0 0 0 0 0.996078 0 0 0 0 0.403922 0 0 0 0.8 0"/>
<feBlend mode="normal" in2="shape" result="effect1_innerShadow_522_56"/>
</filter>
<filter id="filter1_g_522_56" x="-17" y="-60" width="313" height="313" filterUnits="userSpaceOnUse" color-interpolation-filters="sRGB">
<feFlood flood-opacity="0" result="BackgroundImageFix"/>
<feBlend mode="normal" in="SourceGraphic" in2="BackgroundImageFix" result="shape"/>
<feTurbulence type="fractalNoise" baseFrequency="0.99900001287460327 0.99900001287460327" numOctaves="3" seed="4441" />
<feDisplacementMap in="shape" scale="200" xChannelSelector="R" yChannelSelector="G" result="displacedImage" width="100%" height="100%" />
<feMerge result="effect1_texture_522_56">
<feMergeNode in="displacedImage"/>
</feMerge>
</filter>
<clipPath id="bgblur_1_522_56_clip_path" transform="translate(17 60)"><circle cx="139.5" cy="96.5" r="56.5"/>
</clipPath><clipPath id="clip0_522_56">
<rect width="331" height="258" fill="white"/>
</clipPath>
</defs>
</svg>
