<svg width="331" height="258" viewBox="0 0 331 258" fill="none" xmlns="http://www.w3.org/2000/svg">
<g clip-path="url(#clip0_527_206)">
<rect width="331" height="258" fill="white"/>
<path d="M37 173C37 167.477 41.4772 163 47 163H78C83.5228 163 88 167.477 88 173V227C88 232.523 83.5228 237 78 237H47C41.4772 237 37 232.523 37 227V173Z" fill="#ECEDEF"/>
<path d="M105 142C105 136.477 109.477 132 115 132H146C151.523 132 156 136.477 156 142V227C156 232.523 151.523 237 146 237H115C109.477 237 105 232.523 105 227V142Z" fill="#ECEDEF"/>
<path d="M173 108C173 102.477 177.477 98 183 98H214C219.523 98 224 102.477 224 108V227C224 232.523 219.523 237 214 237H183C177.477 237 173 232.523 173 227V108Z" fill="#ECEDEF"/>
<g filter="url(#filter0_i_527_206)">
<rect x="241" y="83" width="51" height="154" rx="10" fill="white"/>
</g>
<foreignObject x="133" y="-76" width="318" height="318"><div xmlns="http://www.w3.org/1999/xhtml" style="backdrop-filter:blur(12px);clip-path:url(#bgblur_1_527_206_clip_path);height:100%;width:100%"></div></foreignObject><g opacity="0.6" filter="url(#filter1_g_527_206)" data-figma-bg-blur-radius="24" style="mix-blend-mode:hue">
<circle cx="292" cy="83" r="59" fill="#ECEFEC" fill-opacity="0.98"/>
</g>
</g>
<defs>
<filter id="filter0_i_527_206" x="241" y="83" width="58" height="164" filterUnits="userSpaceOnUse" color-interpolation-filters="sRGB">
<feFlood flood-opacity="0" result="BackgroundImageFix"/>
<feBlend mode="normal" in="SourceGraphic" in2="BackgroundImageFix" result="shape"/>
<feColorMatrix in="SourceAlpha" type="matrix" values="0 0 0 0 0 0 0 0 0 0 0 0 0 0 0 0 0 0 127 0" result="hardAlpha"/>
<feMorphology radius="1" operator="dilate" in="SourceAlpha" result="effect1_innerShadow_527_206"/>
<feOffset dx="7" dy="10"/>
<feGaussianBlur stdDeviation="11"/>
<feComposite in2="hardAlpha" operator="arithmetic" k2="-1" k3="1"/>
<feColorMatrix type="matrix" values="0 0 0 0 0.909804 0 0 0 0 0.996078 0 0 0 0 0.403922 0 0 0 0.8 0"/>
<feBlend mode="normal" in2="shape" result="effect1_innerShadow_527_206"/>
</filter>
<filter id="filter1_g_527_206" x="133" y="-76" width="318" height="318" filterUnits="userSpaceOnUse" color-interpolation-filters="sRGB">
<feFlood flood-opacity="0" result="BackgroundImageFix"/>
<feBlend mode="normal" in="SourceGraphic" in2="BackgroundImageFix" result="shape"/>
<feTurbulence type="fractalNoise" baseFrequency="0.99900001287460327 0.99900001287460327" numOctaves="3" seed="4441" />
<feDisplacementMap in="shape" scale="200" xChannelSelector="R" yChannelSelector="G" result="displacedImage" width="100%" height="100%" />
<feMerge result="effect1_texture_527_206">
<feMergeNode in="displacedImage"/>
</feMerge>
</filter>
<clipPath id="bgblur_1_527_206_clip_path" transform="translate(-133 76)"><circle cx="292" cy="83" r="59"/>
</clipPath><clipPath id="clip0_527_206">
<rect width="331" height="258" fill="white"/>
</clipPath>
</defs>
</svg>
