<svg width="331" height="258" viewBox="0 0 331 258" fill="none" xmlns="http://www.w3.org/2000/svg">
<g clip-path="url(#clip0_527_119)">
<rect width="331" height="258" fill="white"/>
<rect x="28" y="78" width="119" height="156" rx="10" fill="#ECEDEF"/>
<g filter="url(#filter0_i_527_119)">
<path d="M28 88C28 82.4772 32.4772 78 38 78H137C142.523 78 147 82.4772 147 88V189H28V88Z" fill="white"/>
</g>
<foreignObject x="-120" y="-65" width="319" height="319"><div xmlns="http://www.w3.org/1999/xhtml" style="backdrop-filter:blur(12px);clip-path:url(#bgblur_1_527_119_clip_path);height:100%;width:100%"></div></foreignObject><g opacity="0.6" filter="url(#filter1_g_527_119)" data-figma-bg-blur-radius="24" style="mix-blend-mode:hue">
<circle cx="39.5" cy="94.5" r="59.5" fill="#ECEFEC" fill-opacity="0.98"/>
</g>
<path d="M171 88C171 82.4772 175.477 78 181 78H274C279.523 78 284 82.4772 284 88V224C284 229.523 279.523 234 274 234H181C175.477 234 171 229.523 171 224V88Z" fill="#ECEDEF"/>
<path d="M308 88C308 82.4772 312.477 78 318 78H411C416.523 78 421 82.4772 421 88V224C421 229.523 416.523 234 411 234H318C312.477 234 308 229.523 308 224V88Z" fill="#ECEDEF"/>
</g>
<defs>
<filter id="filter0_i_527_119" x="28" y="78" width="126" height="121" filterUnits="userSpaceOnUse" color-interpolation-filters="sRGB">
<feFlood flood-opacity="0" result="BackgroundImageFix"/>
<feBlend mode="normal" in="SourceGraphic" in2="BackgroundImageFix" result="shape"/>
<feColorMatrix in="SourceAlpha" type="matrix" values="0 0 0 0 0 0 0 0 0 0 0 0 0 0 0 0 0 0 127 0" result="hardAlpha"/>
<feMorphology radius="1" operator="dilate" in="SourceAlpha" result="effect1_innerShadow_527_119"/>
<feOffset dx="7" dy="10"/>
<feGaussianBlur stdDeviation="11"/>
<feComposite in2="hardAlpha" operator="arithmetic" k2="-1" k3="1"/>
<feColorMatrix type="matrix" values="0 0 0 0 0.909804 0 0 0 0 0.996078 0 0 0 0 0.403922 0 0 0 0.8 0"/>
<feBlend mode="normal" in2="shape" result="effect1_innerShadow_527_119"/>
</filter>
<filter id="filter1_g_527_119" x="-120" y="-65" width="319" height="319" filterUnits="userSpaceOnUse" color-interpolation-filters="sRGB">
<feFlood flood-opacity="0" result="BackgroundImageFix"/>
<feBlend mode="normal" in="SourceGraphic" in2="BackgroundImageFix" result="shape"/>
<feTurbulence type="fractalNoise" baseFrequency="0.99900001287460327 0.99900001287460327" numOctaves="3" seed="4441" />
<feDisplacementMap in="shape" scale="200" xChannelSelector="R" yChannelSelector="G" result="displacedImage" width="100%" height="100%" />
<feMerge result="effect1_texture_527_119">
<feMergeNode in="displacedImage"/>
</feMerge>
</filter>
<clipPath id="bgblur_1_527_119_clip_path" transform="translate(120 65)"><circle cx="39.5" cy="94.5" r="59.5"/>
</clipPath><clipPath id="clip0_527_119">
<rect width="331" height="258" fill="white"/>
</clipPath>
</defs>
</svg>
